<svg xmlns="http://www.w3.org/2000/svg" xmlns:xlink="http://www.w3.org/1999/xlink" version="1.1" x="0px" y="0px" viewBox="0 0 24 24" enable-background="new 0 0 24 24" xml:space="preserve"><path d="M23.368,11.214c0-0.427-0.166-0.83-0.468-1.132c-0.303-0.303-0.705-0.47-1.134-0.47h-1.535  c-0.196-0.654-0.469-1.279-0.813-1.863l1.071-1.07c0.624-0.624,0.625-1.64,0-2.267l-1.008-1.007c-0.605-0.604-1.657-0.606-2.266,0  l-1.141,1.142c-0.586-0.312-1.201-0.554-1.835-0.721V2.232c0-0.883-0.719-1.601-1.602-1.601h-1.426  c-0.883,0-1.601,0.718-1.601,1.601v1.681c-0.618,0.186-1.211,0.44-1.77,0.759L6.678,3.507c-0.604-0.603-1.657-0.604-2.265,0  L3.406,4.517C3.104,4.818,2.937,5.22,2.937,5.648c0,0.428,0.167,0.831,0.469,1.133L4.6,7.975C4.289,8.542,4.044,9.139,3.869,9.758  H2.232c-0.883,0-1.601,0.718-1.601,1.601v1.427c0,0.883,0.718,1.601,1.601,1.601h1.637C4.048,15.02,4.3,15.63,4.621,16.208  l-1.114,1.113c-0.622,0.624-0.622,1.641,0,2.266l1.009,1.007c0.605,0.606,1.661,0.604,2.265,0l1.101-1.102  c0.592,0.336,1.221,0.599,1.876,0.783v1.491c0,0.882,0.718,1.601,1.602,1.603c0,0,0,0,0.001,0l1.427-0.001  c0.881,0,1.599-0.719,1.599-1.602v-1.491c0.671-0.189,1.313-0.459,1.914-0.804l1.02,1.02c0.604,0.604,1.658,0.604,2.267-0.001  l1.008-1.008c0.623-0.624,0.623-1.64-0.001-2.266l-1.049-1.048c0.337-0.611,0.597-1.258,0.773-1.927h1.448  c0.882,0,1.601-0.719,1.603-1.603L23.368,11.214z M12,15.988c-2.199,0-3.988-1.789-3.988-3.988c0-2.199,1.789-3.988,3.988-3.988  c2.199,0,3.988,1.789,3.988,3.988C15.988,14.199,14.199,15.988,12,15.988z"/></svg>