<svg xmlns="http://www.w3.org/2000/svg" xmlns:xlink="http://www.w3.org/1999/xlink" xml:space="preserve" version="1.1" style="shape-rendering:geometricPrecision;text-rendering:geometricPrecision;image-rendering:optimizeQuality;" viewBox="0 0 847 847" x="0px" y="0px" fill-rule="evenodd" clip-rule="evenodd"><defs></defs><g><path class="fil0" d="M403 10l41 0c29,0 52,23 52,52l0 289 289 0c28,0 52,23 52,52l0 41c0,29 -24,52 -52,52l-289 0 0 289c0,28 -23,52 -52,52l-41 0c-29,0 -52,-24 -52,-52l0 -289 -289 0c-29,0 -52,-23 -52,-52l0 -41c0,-29 23,-52 52,-52l289 0 0 -289c0,-29 23,-52 52,-52z"/></g></svg>