<svg xmlns="http://www.w3.org/2000/svg" xmlns:xlink="http://www.w3.org/1999/xlink" viewBox="20 20 60 60" version="1.1" x="0px" y="0px"><g stroke="none" stroke-width="1" fill="none" fill-rule="evenodd"><g fill="#fff"><path d="M68.9454365,72.9454365 C67.5786015,74.3122715 65.362524,74.3122715 63.995689,72.9454365 C62.628854,71.5786015 62.628854,69.362524 63.995689,67.995689 C72.001437,59.989941 72.001437,47.010059 63.995689,39.004311 C55.989941,30.998563 43.010059,30.998563 35.004311,39.004311 C26.998563,47.010059 26.998563,59.989941 35.004311,67.995689 C36.371146,69.362524 36.371146,71.5786015 35.004311,72.9454365 C33.637476,74.3122715 31.4213985,74.3122715 30.0545635,72.9454365 C19.3151455,62.2060185 19.3151455,44.7939815 30.0545635,34.0545635 C40.7939815,23.3151455 58.2060185,23.3151455 68.9454365,34.0545635 C79.6848545,44.7939815 79.6848545,62.2060185 68.9454365,72.9454365 Z M51.5440897,44.1447036 L61.5700334,54.380574 C64.3900113,57.2086319 60.1600445,61.4517187 57.3390694,58.6236608 L53.9069511,55.1686175 C53.1256059,54.3820532 52.4919266,54.6427976 52.4919266,55.7513465 L52.4919266,69.5073375 C52.4919266,71.1511231 51.1525909,72.4999981 49.5004366,72.4999981 C47.8516441,72.4999981 46.5089466,71.1601383 46.5089466,69.5073375 L46.5089466,55.7513465 C46.5089466,54.6487752 45.8752882,54.381901 45.0936309,55.1686175 L41.6608066,58.6236608 C38.8408287,61.4517187 34.6098647,57.2086319 37.4298426,54.380574 L47.3530305,44.1588346 C48.5132064,42.9637533 50.3854039,42.9617568 51.5440897,44.1447036 Z" transform="translate(49.500000, 49.985281) rotate(-270.000000) translate(-49.500000, -49.985281) "/></g></g></svg>