<svg xmlns="http://www.w3.org/2000/svg" xmlns:xlink="http://www.w3.org/1999/xlink" version="1.1" x="0px" y="0px" viewBox="0 0 100 100" enable-background="new 0 0 100 100" xml:space="preserve"><g><g><path d="M49.9,35C20.8,35,10,57.3,10,57.3s11.1,22.3,39.9,22.3c28.2,0,39.9-22.3,39.9-22.3S79.1,35,49.9,35z M49.9,75.4    c-10,0-18.1-8.1-18.1-18.1s8.1-18.1,18.1-18.1S68,47.3,68,57.3S59.9,75.4,49.9,75.4z"/></g><g><path d="M54.5,55.1c0.1,0.3,0.1,0.6,0.1,0.9c0,2.4-1.9,4.3-4.3,4.3c-2.4,0-4.3-1.9-4.3-4.3c0-2.4,1.9-4.3,4.3-4.3c0,0,0,0,0.1,0    c-0.3-0.7-0.4-1.4-0.4-2.2c0-0.6,0.1-1.3,0.3-1.8c-0.1,0-0.2,0-0.3,0c-5.3,0-9.5,4.3-9.5,9.5c0,5.3,4.3,9.5,9.5,9.5    c5.3,0,9.5-4.3,9.5-9.5c0-1.1-0.2-2.2-0.5-3.2c-0.9,0.7-2.1,1.1-3.4,1.1C55.2,55.2,54.8,55.2,54.5,55.1z"/></g><rect x="3.8" y="39.2" transform="matrix(0.7261 0.6876 -0.6876 0.7261 31.3872 5.2682)" width="10.5" height="5.6"/><rect x="24.3" y="26.5" transform="matrix(0.3252 0.9457 -0.9457 0.3252 47.6594 -8.1507)" width="10.5" height="5.6"/><rect x="44.7" y="22.9" transform="matrix(-2.363366e-03 1 -1 -2.363366e-03 75.8459 -24.2112)" width="10.5" height="5.6"/><rect x="85.7" y="39.2" transform="matrix(-0.7261 0.6876 -0.6876 -0.7261 185.8357 10.0357)" width="10.5" height="5.6"/><rect x="65.2" y="27.3" transform="matrix(-0.4852 0.8744 -0.8744 -0.4852 130.9197 -16.9844)" width="10.5" height="5.6"/></g></svg>